<?xml version="1.0" standalone="no"?>
<!DOCTYPE svg PUBLIC "-//W3C//DTD SVG 20010904//EN"
 "http://www.w3.org/TR/2001/REC-SVG-20010904/DTD/svg10.dtd">
<svg version="1.0" xmlns="http://www.w3.org/2000/svg"
 width="575.000000pt" height="575.000000pt" viewBox="0 0 575.000000 575.000000"
 preserveAspectRatio="xMidYMid meet">
<metadata>
Created by potrace 1.11, written by Peter Selinger 2001-2013
</metadata>
<g transform="translate(0.000000,575.000000) scale(0.100000,-0.100000)"
fill="#000000" stroke="none">
<path d="M2640 4010 c-285 -61 -526 -216 -698 -449 -146 -196 -222 -425 -222
-667 l0 -114 184 0 185 0 -6 53 c-7 72 12 209 42 298 85 250 291 441 550 510
61 17 109 22 200 22 91 0 139 -5 200 -22 259 -69 465 -260 550 -510 30 -89 49
-226 42 -298 l-6 -53 185 0 184 0 0 114 c0 544 -398 1018 -942 1121 -113 21
-338 19 -448 -5z m368 -92 c15 -13 16 -62 1 -89 -7 -14 -7 -29 0 -50 9 -27 8
-29 -14 -29 -18 0 -26 8 -35 35 -13 38 -30 38 -30 -1 0 -17 -5 -24 -20 -24
-18 0 -20 7 -20 74 0 41 -2 80 -5 88 -4 10 7 12 52 10 32 -2 64 -9 71 -14z
m-181 0 c14 -18 24 -130 14 -147 -10 -16 -90 -26 -109 -13 -7 5 -15 39 -19 77
-5 59 -4 70 12 81 24 17 89 18 102 2z m-173 -60 c-9 -66 -9 -78 -1 -104 6 -15
3 -23 -9 -28 -22 -8 -31 -1 -39 33 -3 15 -24 45 -45 66 -22 22 -40 43 -40 47
0 18 53 7 71 -14 l18 -23 1 23 c0 12 0 25 -1 28 -1 9 23 24 39 24 11 0 12 -11
6 -52z m468 17 c-4 -27 -3 -28 15 -15 10 8 21 19 24 23 3 5 19 5 34 1 l29 -7
-34 -28 -34 -28 12 -52 c14 -58 12 -64 -16 -55 -13 4 -22 19 -27 42 -5 29 -9
33 -21 24 -8 -7 -14 -19 -14 -27 0 -9 -8 -13 -22 -11 -13 2 -23 5 -22 8 28
132 39 161 58 158 17 -2 20 -9 18 -33z m-688 -137 c24 -76 24 -82 8 -94 -14
-11 -21 -8 -45 19 l-28 32 5 -27 c3 -14 9 -33 12 -41 3 -9 -2 -20 -13 -25 -15
-8 -30 1 -84 52 -62 59 -65 64 -46 75 17 11 24 8 54 -21 l34 -33 -16 44 c-18
53 -18 48 2 55 10 4 26 -3 45 -21 28 -27 37 -18 17 18 -13 25 -5 49 15 49 10
0 24 -27 40 -82z m977 49 c35 -23 46 -51 30 -76 -12 -19 -41 -6 -41 18 0 35
-27 32 -49 -5 -24 -40 -19 -58 13 -50 11 3 27 1 35 -3 18 -12 -7 -51 -33 -51
-27 0 -86 39 -86 57 0 18 57 114 74 125 16 11 20 10 57 -15z m119 -82 c14 -17
16 -13 -53 -97 -24 -30 -43 -45 -53 -41 -7 3 -14 9 -14 14 0 12 93 138 101
139 4 0 12 -7 19 -15z m-1323 -41 c3 -8 -4 -25 -17 -39 -27 -29 -19 -47 8 -22
38 34 67 9 32 -28 -29 -31 -7 -45 25 -15 21 19 27 21 40 10 14 -12 11 -18 -25
-55 l-42 -43 -61 62 -62 61 40 43 c43 46 53 50 62 26z m1453 -109 c-11 -14
-15 -14 -30 0 -15 13 -20 10 -60 -30 -48 -49 -58 -53 -67 -29 -4 10 9 31 37
59 37 37 41 46 30 60 -10 12 -10 18 1 31 11 13 18 10 57 -30 39 -38 44 -47 32
-61z m-1529 -56 c60 -44 67 -53 57 -69 -10 -15 -21 -18 -62 -13 l-51 5 33 -22
c34 -24 36 -28 23 -49 -7 -11 -23 -4 -78 34 -37 27 -70 50 -72 51 -2 2 2 11
10 20 10 12 25 15 63 11 l50 -4 -29 23 c-17 13 -33 24 -38 24 -4 0 -2 9 5 20
7 11 15 20 17 20 2 0 34 -23 72 -51z m1589 -1 c0 -9 -4 -20 -10 -23 -22 -14
-9 -27 20 -22 23 5 32 2 40 -13 12 -23 8 -26 -55 -35 -27 -4 -63 -14 -78 -23
-24 -15 -29 -15 -37 -2 -7 11 -2 22 19 42 16 15 40 49 53 76 20 41 25 46 35
33 7 -9 13 -24 13 -33z"/>
<path d="M2935 3879 c-9 -13 -5 -16 20 -21 12 -2 21 3 23 15 4 19 -32 25 -43
6z"/>
<path d="M2757 3883 c-3 -5 -3 -28 0 -51 4 -32 10 -42 22 -40 23 5 23 91 -1
96 -9 2 -19 -1 -21 -5z"/>
<path d="M2694 3560 c-144 -38 -194 -78 -194 -156 0 -32 2 -34 28 -28 98 24
272 105 321 150 2 2 -1 15 -7 29 -14 31 -46 32 -148 5z"/>
<path d="M2908 3555 c-6 -14 -9 -27 -7 -29 49 -45 223 -126 322 -150 25 -6 27
-4 27 28 0 79 -50 119 -198 157 -103 26 -130 25 -144 -6z"/>
<path d="M2795 3458 c-61 -38 -165 -83 -230 -99 -28 -6 -54 -15 -59 -20 -5 -4
1 -39 13 -78 24 -80 23 -79 125 -60 76 14 135 40 180 79 l36 32 0 89 c0 49 -3
89 -7 89 -5 0 -30 -14 -58 -32z"/>
<path d="M2890 3401 l0 -89 36 -32 c45 -39 104 -65 180 -79 102 -19 101 -20
125 59 11 38 18 73 15 78 -3 6 -23 13 -43 17 -55 10 -179 61 -244 101 -31 18
-59 34 -63 34 -3 0 -6 -40 -6 -89z"/>
<path d="M2368 3369 c-36 -37 -73 -84 -83 -105 -22 -47 -32 -129 -16 -138 28
-18 121 65 161 143 21 41 26 109 10 146 -7 18 -14 14 -72 -46z"/>
<path d="M3306 3407 c-11 -43 -6 -98 14 -138 40 -78 133 -161 161 -143 15 9 6
91 -15 135 -19 40 -108 144 -136 159 -14 8 -19 5 -24 -13z"/>
<path d="M2428 3219 c-32 -51 -72 -88 -133 -124 -15 -9 -13 -14 17 -49 33 -38
35 -39 70 -27 46 15 105 79 113 123 4 21 -1 52 -12 84 l-18 51 -37 -58z"/>
<path d="M3266 3224 c-11 -34 -15 -67 -11 -86 10 -42 69 -104 113 -119 35 -12
37 -11 70 27 30 35 32 40 17 49 -61 36 -101 73 -134 125 l-38 58 -17 -54z"/>
<path d="M2815 3238 c-50 -35 -153 -68 -211 -68 -53 0 -55 -9 -19 -80 25 -49
26 -50 72 -50 67 0 119 19 164 59 40 36 40 36 37 102 l-3 65 -40 -28z"/>
<path d="M2890 3200 c0 -68 1 -69 40 -103 46 -39 97 -57 163 -57 46 0 47 1 72
50 36 71 34 80 -19 80 -60 0 -154 31 -210 68 l-46 31 0 -69z"/>
<path d="M2210 3135 c-45 -113 -56 -304 -26 -429 30 -127 135 -305 192 -326
34 -13 169 -13 217 1 21 5 54 24 73 42 36 31 36 32 31 93 -9 113 -58 176 -348
449 -86 81 -98 96 -111 145 l-16 55 -12 -30z m179 -392 c211 -147 294 -273
179 -273 -102 0 -172 46 -226 147 -41 79 -74 193 -56 193 3 0 50 -30 103 -67z"/>
<path d="M3511 3107 c-12 -46 -23 -61 -104 -137 -292 -273 -345 -341 -354
-454 -5 -61 -5 -62 31 -93 47 -42 101 -56 207 -51 101 4 107 7 175 110 90 135
134 317 114 473 -10 82 -38 192 -50 200 -3 2 -12 -19 -19 -48z m-41 -310 c0
-31 -34 -127 -66 -183 -57 -103 -120 -144 -222 -144 -114 0 -33 125 178 273
100 70 110 75 110 54z"/>
<path d="M2510 3107 c0 -22 -58 -84 -95 -101 -19 -9 -35 -20 -34 -24 0 -4 21
-24 45 -44 44 -36 46 -37 74 -23 33 17 70 61 70 84 0 21 -43 121 -52 121 -5 0
-8 -6 -8 -13z"/>
<path d="M3202 3067 c-29 -67 -28 -79 8 -120 46 -53 65 -53 118 -3 l46 43 -38
18 c-38 18 -96 80 -96 102 0 27 -16 10 -38 -40z"/>
<path d="M2842 3078 c-19 -23 -101 -56 -160 -64 -29 -3 -52 -9 -52 -12 0 -2
14 -29 31 -58 29 -51 33 -54 71 -54 47 0 105 25 119 51 5 11 9 49 7 86 -3 55
-5 64 -16 51z"/>
<path d="M2890 3022 c0 -59 4 -76 20 -92 27 -27 63 -40 110 -40 36 0 40 3 69
54 17 29 31 56 31 58 0 3 -24 9 -52 12 -57 8 -131 37 -160 63 -17 15 -18 13
-18 -55z"/>
<path d="M2560 2930 c-19 -21 -42 -39 -50 -42 -11 -4 -5 -15 25 -47 21 -22 43
-41 47 -41 4 0 22 13 40 29 29 26 31 30 20 57 -7 16 -20 41 -30 55 l-17 26
-35 -37z"/>
<path d="M3123 2914 l-28 -55 33 -30 c18 -16 36 -29 40 -29 4 0 26 19 47 41
30 32 36 43 25 47 -8 3 -31 22 -52 43 l-36 38 -29 -55z"/>
<path d="M2835 2890 c-3 -5 -32 -15 -64 -21 l-59 -13 26 -53 c28 -58 43 -64
92 -38 28 15 30 19 30 75 0 55 -10 75 -25 50z"/>
<path d="M2890 2840 c0 -56 2 -60 30 -75 49 -26 64 -20 92 39 l27 54 -42 6
c-24 4 -55 13 -71 21 -16 8 -30 15 -32 15 -2 0 -4 -27 -4 -60z"/>
<path d="M2633 2803 l-31 -27 35 -43 c63 -77 109 -46 65 44 -14 29 -29 53 -32
52 -3 0 -19 -12 -37 -26z"/>
<path d="M3048 2777 c-44 -90 2 -121 65 -44 l35 43 -33 27 c-19 15 -35 27 -37
27 -2 0 -16 -24 -30 -53z"/>
<path d="M2807 2728 c-17 -6 -26 -15 -23 -23 2 -7 10 -32 17 -54 10 -34 17
-41 33 -39 18 3 21 11 24 66 3 67 1 69 -51 50z"/>
<path d="M2892 2678 c3 -55 6 -63 24 -66 16 -2 23 5 33 39 7 22 15 47 17 54 5
11 -42 35 -68 35 -5 0 -8 -28 -6 -62z"/>
<path d="M2709 2667 c-14 -11 -13 -17 5 -60 17 -38 24 -45 34 -35 15 15 16 47
2 82 -11 29 -18 31 -41 13z"/>
<path d="M3000 2654 c-14 -35 -12 -70 3 -82 10 -9 18 -1 34 37 19 46 19 48 2
60 -26 15 -28 14 -39 -15z"/>
<path d="M2820 2515 c0 -58 2 -65 20 -65 18 0 20 7 20 65 0 58 -2 65 -20 65
-18 0 -20 -7 -20 -65z"/>
<path d="M2890 2515 c0 -58 2 -65 20 -65 18 0 20 7 20 65 0 58 -2 65 -20 65
-18 0 -20 -7 -20 -65z"/>
<path d="M2753 2543 c-19 -7 -17 -83 2 -83 11 0 15 12 15 45 0 25 -1 45 -2 44
-2 0 -9 -3 -15 -6z"/>
<path d="M2980 2505 c0 -33 4 -45 15 -45 11 0 15 11 15 39 0 25 -5 41 -15 45
-12 4 -15 -4 -15 -39z"/>
<path d="M1770 2530 c0 -17 46 -133 78 -195 76 -149 221 -313 365 -413 102
-71 240 -135 363 -169 93 -26 111 -28 299 -28 188 0 206 2 299 28 362 101 654
364 782 705 13 34 24 67 24 72 0 6 -74 10 -192 10 l-193 0 -33 -61 c-18 -33
-63 -92 -100 -131 -164 -174 -358 -260 -587 -260 -229 0 -423 86 -587 260 -37
39 -82 98 -100 131 l-33 61 -192 0 c-119 0 -193 -4 -193 -10z m1824 -323 c44
-51 48 -59 35 -73 -14 -13 -19 -13 -52 1 -54 22 -64 18 -34 -13 29 -30 34 -47
16 -58 -7 -4 -36 19 -70 57 -51 54 -57 65 -45 77 12 13 21 12 60 -1 52 -18 58
-11 21 23 -19 18 -22 26 -13 37 16 20 26 14 82 -50z m-1330 32 c24 -19 35 -57
20 -72 -3 -3 -17 7 -31 24 -29 34 -52 29 -29 -7 22 -33 20 -57 -8 -83 -28 -26
-50 -20 -85 25 -16 20 -18 31 -11 45 10 17 13 16 39 -14 33 -36 52 -31 27 7
-20 32 -20 55 1 78 21 24 44 23 77 -3z m115 -95 c59 -39 62 -63 11 -109 -21
-19 -22 -19 -53 -2 -30 18 -31 18 -48 -4 -15 -21 -39 -20 -39 2 0 5 16 33 35
62 19 28 35 57 35 64 0 19 16 16 59 -13z m1039 -5 c1 -9 -9 -21 -23 -29 -26
-14 -34 -30 -14 -30 6 0 19 4 29 10 13 7 21 6 30 -5 9 -11 6 -17 -15 -31 -17
-11 -23 -20 -16 -27 7 -7 19 -4 36 7 27 18 45 14 45 -9 0 -12 -88 -72 -94 -63
-47 72 -88 139 -85 142 2 1 22 15 44 29 42 29 58 30 63 6z m-934 -55 c23 -9
20 -25 -16 -99 -30 -61 -49 -78 -62 -56 -5 7 53 160 61 161 1 0 8 -3 17 -6z
m823 -83 c25 -66 28 -81 16 -85 -22 -9 -22 -9 -37 27 -14 31 -14 32 -15 6 -1
-34 -28 -45 -54 -22 -19 18 -19 17 -12 -7 4 -14 10 -30 12 -37 3 -6 -4 -13
-14 -15 -14 -3 -24 12 -49 72 -17 41 -29 78 -27 83 8 15 38 6 65 -20 15 -14
30 -24 33 -21 3 2 6 23 7 46 1 38 6 45 39 51 3 0 20 -35 36 -78z m-680 24 c39
-17 41 -32 12 -110 -23 -62 -29 -64 -103 -39 -32 11 -44 20 -38 28 15 19 51
134 44 142 -9 9 43 -4 85 -21z m146 -30 c27 -4 37 -11 37 -24 0 -14 -7 -18
-32 -17 -39 1 -50 -18 -13 -22 18 -2 25 -9 25 -24 0 -17 -4 -20 -30 -14 -22 4
-30 2 -30 -9 0 -8 14 -17 34 -20 27 -5 33 -11 29 -26 -4 -16 -12 -18 -52 -13
-71 9 -71 9 -60 47 5 18 10 56 11 85 3 45 5 51 23 47 11 -2 37 -7 58 -10z
m193 -77 c0 -39 6 -74 14 -83 11 -13 9 -15 -14 -15 -18 0 -30 8 -41 30 -17 33
-38 31 -33 -3 2 -16 -3 -23 -19 -25 -22 -3 -23 -1 -23 83 l0 86 58 -3 57 -3 1
-67z m140 11 c9 -16 -6 -26 -48 -34 -34 -6 -38 -5 -38 13 0 13 8 22 23 25 41
8 56 7 63 -4z"/>
<path d="M2334 2099 c-6 -10 11 -28 28 -29 15 0 20 23 7 31 -19 12 -26 11 -35
-2z"/>
<path d="M2571 1978 c-21 -57 -22 -66 -5 -72 21 -8 28 -1 43 43 9 27 8 36 -1
43 -20 12 -28 10 -37 -14z"/>
<path d="M2890 1935 c0 -8 9 -15 20 -15 11 0 20 7 20 15 0 8 -9 15 -20 15 -11
0 -20 -7 -20 -15z"/>
<path d="M2720 2415 c0 -8 9 -19 19 -24 15 -9 20 -7 24 9 6 23 0 30 -25 30
-10 0 -18 -7 -18 -15z"/>
<path d="M2986 2421 c-4 -5 -3 -16 0 -25 5 -12 10 -13 25 -5 10 5 19 16 19 24
0 16 -35 21 -44 6z"/>
<path d="M2817 2414 c-4 -4 -7 -18 -7 -31 0 -18 5 -23 26 -23 22 0 25 4 22 27
-3 27 -26 41 -41 27z"/>
<path d="M2897 2414 c-4 -4 -7 -18 -7 -31 0 -18 5 -23 26 -23 22 0 25 4 22 27
-3 27 -26 41 -41 27z"/>
<path d="M2681 2351 l-20 -28 27 -14 c15 -7 30 -15 33 -17 4 -1 11 10 17 27 9
24 7 32 -7 45 -23 21 -26 21 -50 -13z"/>
<path d="M3018 2364 c-13 -13 -14 -22 -6 -46 6 -16 13 -27 17 -26 3 2 18 10
33 17 l27 14 -22 28 c-24 34 -27 34 -49 13z"/>
<path d="M2570 2338 c-19 -5 -61 -8 -92 -6 -32 2 -58 3 -58 2 0 -2 15 -14 33
-28 33 -25 35 -26 83 -11 27 8 60 24 74 35 28 22 16 24 -40 8z"/>
<path d="M3140 2331 c14 -12 47 -28 74 -36 48 -15 50 -14 83 11 18 14 33 26
33 27 0 1 -33 2 -72 2 -40 0 -89 4 -108 8 l-35 8 25 -20z"/>
<path d="M2786 2315 c-11 -29 -7 -33 34 -37 39 -3 41 -2 38 22 -2 20 -9 26
-34 28 -22 2 -33 -2 -38 -13z"/>
<path d="M2897 2323 c-4 -3 -7 -16 -7 -27 0 -19 5 -21 40 -18 41 4 45 8 34 36
-6 16 -54 22 -67 9z"/>
<path d="M2576 2276 l-48 -22 62 -28 62 -28 24 23 c33 31 31 55 -7 68 -39 13
-33 14 -93 -13z"/>
<path d="M3078 2288 c-35 -12 -36 -37 -4 -67 l24 -23 62 28 62 28 -52 23 c-59
26 -55 25 -92 11z"/>
<path d="M2773 2252 c-23 -7 -69 -59 -60 -68 3 -3 33 -6 68 -7 61 -2 62 -1 70
28 5 16 5 33 1 37 -12 11 -56 17 -79 10z"/>
<path d="M2912 2250 c-18 -8 -21 -14 -16 -37 10 -40 12 -43 42 -43 40 0 102
12 102 19 -1 3 -11 18 -23 32 -25 30 -71 43 -105 29z"/>
</g>
</svg>
